<svg id="Layer_1" data-name="Layer 1" xmlns="http://www.w3.org/2000/svg" xmlns:xlink="http://www.w3.org/1999/xlink" viewBox="0 0 841.89 595.28"><defs><style>.cls-1{fill:url(#linear-gradient);}</style><linearGradient id="linear-gradient" x1="555.43" y1="297.64" x2="286.46" y2="297.64" gradientUnits="userSpaceOnUse"><stop offset="0" stop-color="#00fff7"/><stop offset="0.13" stop-color="#06d2f9"/><stop offset="0.28" stop-color="#0da2fb"/><stop offset="0.44" stop-color="#127afc"/><stop offset="0.59" stop-color="#175bfd"/><stop offset="0.73" stop-color="#1a45fe"/><stop offset="0.87" stop-color="#1b38ff"/><stop offset="1" stop-color="#1c33ff"/></linearGradient></defs><path class="cls-1" d="M510.39,167.36c-24.67,25.09-49.24,50.29-74,75.31A17.69,17.69,0,0,0,431,256.23c.17,28.15-.11,56.32.24,84.47a18.18,18.18,0,0,0,4.48,11.36C460.62,378,486,403.56,511,429.35c3.86,4,6.84,4.17,10.71.11,9.71-10.2,19.68-20.14,29.51-30.22,5.54-5.67,5.55-6.9.15-12.42-19.7-20.12-39.54-40.1-59.08-60.36-17.32-17.95-13.42-9.59-14.17-34-.2-6.47,2.09-11,6.51-15.43,22.6-22.75,44.91-45.78,67.45-68.59,3.81-3.85,4.19-6.9.2-10.86C542,187.42,532,177,521.84,166.69a52.85,52.85,0,0,0-5.5-4.2A70.47,70.47,0,0,0,510.39,167.36ZM410.6,255a18.66,18.66,0,0,0-4.55-11.34c-24.66-25.65-49.66-51-74.6-76.35-5.37-5.47-6.64-5.46-11.87-.17q-14.82,15-29.58,30.15c-4.78,4.9-4.72,6.51.26,11.59,19.43,19.84,38.28,40.29,58.52,59.24,11.19,10.47,17.15,21.36,15,36.77-.68,4.87-1.54,8.83-5.13,12.46q-34.45,34.8-68.61,69.91c-4.72,4.82-4.74,6.47-.16,11.16q14.94,15.33,29.95,30.59c4.88,5,6.33,5,11,.24Q368.41,391,406,352.65a15.73,15.73,0,0,0,4.9-12c-.18-14.08-.06-28.16-.07-42.24C410.81,283.94,411.13,269.46,410.6,255Z"/></svg>