<svg width="269" height="271" viewBox="0 0 269 271" fill="none" xmlns="http://www.w3.org/2000/svg">
<path d="M223.921 4.87C199.251 29.96 174.681 55.16 149.921 80.18C148.11 81.9268 146.692 84.04 145.763 86.3784C144.833 88.7167 144.413 91.2264 144.531 93.74C144.701 121.89 144.421 150.06 144.771 178.21C144.91 182.4 146.493 186.413 149.251 189.57C174.151 215.51 199.531 241.07 224.531 266.86C228.391 270.86 231.371 271.03 235.241 266.97C244.951 256.77 254.921 246.83 264.751 236.75C270.291 231.08 270.301 229.85 264.901 224.33C245.201 204.21 225.361 184.23 205.821 163.97C188.501 146.02 192.401 154.38 191.651 129.97C191.451 123.5 193.741 118.97 198.161 114.54C220.761 91.79 243.071 68.76 265.611 45.95C269.421 42.1 269.801 39.05 265.811 35.09C255.531 24.93 245.531 14.51 235.371 4.2C233.631 2.68134 231.794 1.27834 229.871 0C227.801 1.51384 225.814 3.13959 223.921 4.87ZM124.131 92.51C123.93 88.3265 122.327 84.3322 119.581 81.17C94.921 55.52 69.921 30.17 44.981 4.81999C39.611 -0.650008 38.341 -0.640006 33.111 4.64999C23.231 14.65 13.371 24.7 3.53098 34.8C-1.24902 39.7 -1.18901 41.31 3.79099 46.39C23.221 66.23 42.071 86.68 62.311 105.63C73.501 116.1 79.461 126.99 77.311 142.4C76.631 147.27 75.771 151.23 72.181 154.86C49.2143 178.06 26.3443 201.363 3.57099 224.77C-1.14901 229.59 -1.16902 231.24 3.41098 235.93C13.371 246.15 23.3543 256.347 33.361 266.52C38.241 271.52 39.691 271.52 44.361 266.76C69.4143 241.26 94.471 215.727 119.531 190.16C121.153 188.623 122.43 186.757 123.274 184.688C124.119 182.619 124.514 180.393 124.431 178.16C124.251 164.08 124.371 150 124.361 135.92C124.341 121.45 124.661 106.97 124.131 92.51Z" fill="url(#paint0_linear_27325_27923)"/>
<defs>
<linearGradient id="paint0_linear_27325_27923" x1="268.961" y1="135.15" x2="-0.00900991" y2="135.15" gradientUnits="userSpaceOnUse">
<stop stop-color="#00FFF7"/>
<stop offset="0.13" stop-color="#06D2F9"/>
<stop offset="0.28" stop-color="#0DA2FB"/>
<stop offset="0.44" stop-color="#127AFC"/>
<stop offset="0.59" stop-color="#175BFD"/>
<stop offset="0.73" stop-color="#1A45FE"/>
<stop offset="0.87" stop-color="#1B38FF"/>
<stop offset="1" stop-color="#1C33FF"/>
</linearGradient>
</defs>
</svg>
