<svg id="Layer_1" data-name="Layer 1" xmlns="http://www.w3.org/2000/svg" xmlns:xlink="http://www.w3.org/1999/xlink" viewBox="0 0 841.89 595.28"><defs><style>.cls-1{fill:#df1e26;}.cls-2{fill:url(#linear-gradient);}</style><linearGradient id="linear-gradient" x1="755.91" y1="297.9" x2="485.77" y2="297.9" gradientUnits="userSpaceOnUse"><stop offset="0" stop-color="#00fff7"/><stop offset="0.13" stop-color="#06d2f9"/><stop offset="0.28" stop-color="#0da2fb"/><stop offset="0.44" stop-color="#127afc"/><stop offset="0.59" stop-color="#175bfd"/><stop offset="0.73" stop-color="#1a45fe"/><stop offset="0.87" stop-color="#1b38ff"/><stop offset="1" stop-color="#1c33ff"/></linearGradient></defs><path class="cls-1" d="M149.74,304.82h-43.6v40H86V250.54h20.16v34.12h43.6V250.81H170v94.05H149.74Z"/><path class="cls-1" d="M176.48,345.13l42.68-93.93H240l42,93.93H262l-9.22-20.82H205.2l-9.88,20.82Zm53.35-76.28L214,305.21h31.22L230,268.85Z"/><path class="cls-1" d="M307.94,280.18v65.08H289.89V250.81h23.72l42,58.75V250.81h17.52v94.45H355.63Z"/><path class="cls-1" d="M431.24,346.31A48.68,48.68,0,1,1,480,297.7,48.57,48.57,0,0,1,431.24,346.31ZM402.52,297.7a28.59,28.59,0,1,0,57.17,0c0-15.67-12.78-28.85-28.45-28.85A29.07,29.07,0,0,0,402.52,297.7Z"/><path class="cls-2" d="M515.67,268.46h-29.9V251.2H566v17.39H536.35v76.54H515.67Zm79.83,39.12v20h53.09V345H575.47V250.67h68.64v17.39H595.5v21.21h42.94v18.31Zm144.78-54.69c-8.56,8.71-17.09,17.45-25.68,26.13a6.18,6.18,0,0,0-1.88,4.71c.06,9.77,0,19.54.09,29.31a6.22,6.22,0,0,0,1.55,3.94c8.65,9,17.44,17.87,26.14,26.82,1.34,1.38,2.37,1.45,3.72,0,3.37-3.54,6.83-7,10.24-10.48,1.92-2,1.92-2.4,0-4.31-6.84-7-13.72-13.92-20.5-20.95-6-6.23-4.66-3.33-4.92-11.79a6.77,6.77,0,0,1,2.26-5.35c7.84-7.9,15.58-15.89,23.41-23.8,1.32-1.34,1.45-2.4.06-3.77-3.56-3.54-7-7.16-10.57-10.73a17.69,17.69,0,0,0-1.91-1.46A25.6,25.6,0,0,0,740.28,252.89Zm-34.63,30.42a6.48,6.48,0,0,0-1.58-3.94c-8.55-8.9-17.23-17.68-25.88-26.49-1.87-1.9-2.31-1.9-4.12-.06q-5.15,5.22-10.27,10.46c-1.66,1.7-1.63,2.26.09,4,6.74,6.89,13.28,14,20.31,20.56,3.88,3.63,5.95,7.41,5.2,12.76a6.84,6.84,0,0,1-1.78,4.32q-12,12.07-23.81,24.26c-1.63,1.67-1.64,2.25,0,3.87q5.18,5.32,10.39,10.62c1.69,1.72,2.2,1.74,3.82.08q13-13.29,26.08-26.58a5.47,5.47,0,0,0,1.7-4.17c-.06-4.88,0-9.77,0-14.65S705.83,288.32,705.65,283.31Z"/></svg>